# xmcd
#
# Track frame offsets: 
#        150
#        14891
#        27850
#        41105
#        57272
#        72656
#        85726
#        99825
#        115260
#        128792
#        141050
#        155637
#        170740
#        185285
#        198957
#        210443
#
# Disc length: 3019 seconds
#
# Revision: 0
# Processed by: cddbd v1.5.2PL0 Copyright (c) Steve Scherf et al.
# Submitted via: ExactAudioCopy v0.99pb5
#
DISCID=e20bc910
DTITLE=Arizona Dranes - He Is My Story - The Sanctified Soul of Arizon
DTITLE=a Dranes
DYEAR=1900
DGENRE=20s
TTITLE0=He Is My Story
TTITLE1=In That Day
TTITLE2=I'm Glad My Lord Saved Me
TTITLE3=Crucifixion
TTITLE4=I'll Go Where You Want Me to Go
TTITLE5=It's All Right Now
TTITLE6=Bye and Bye We're Going to See the King
TTITLE7=Don't You Want to Go?
TTITLE8=Just Look
TTITLE9=John Said He Saw a Number
TTITLE10=I Shall Wear a Crown
TTITLE11=Lamb's Blood Has Washed Me Clean
TTITLE12=I'm Going Home on the Morning Train
TTITLE13=God's Got a Crown
TTITLE14=My Soul Is a Witness for the Lord
TTITLE15=Sweet Heaven Is My Home
EXTD=
EXTT0=
EXTT1=
EXTT2=
EXTT3=
EXTT4=
EXTT5=
EXTT6=
EXTT7=
EXTT8=
EXTT9=
EXTT10=
EXTT11=
EXTT12=
EXTT13=
EXTT14=
EXTT15=
PLAYORDER=
